<?xml version="1.0" standalone="no"?>
<!DOCTYPE svg PUBLIC "-//W3C//DTD SVG 20010904//EN"
 "http://www.w3.org/TR/2001/REC-SVG-20010904/DTD/svg10.dtd">
<svg version="1.0" xmlns="http://www.w3.org/2000/svg"
 width="480.000000pt" height="480.000000pt" viewBox="0 0 480.000000 480.000000"
 preserveAspectRatio="xMidYMid meet">
<metadata>
Created by potrace 1.16, written by Peter Selinger 2001-2019
</metadata>
<g transform="translate(0.000000,480.000000) scale(0.100000,-0.100000)"
fill="#000000" stroke="none">
<path d="M620 4109 c-25 -19 -74 -46 -110 -59 -94 -34 -178 -79 -205 -112 -27
-32 -255 -428 -255 -444 0 -5 61 -48 136 -94 l136 -85 -6 -140 c-3 -77 -11
-247 -17 -377 -6 -130 -8 -242 -4 -248 7 -12 981 -15 988 -2 2 4 -2 144 -9
312 -7 168 -13 339 -13 381 l-1 76 63 38 c34 21 97 61 140 88 l78 49 -47 87
c-79 147 -186 322 -217 358 -36 41 -74 61 -186 98 -62 20 -96 39 -128 67 l-43
40 -127 2 -127 1 -46 -36z"/>
<path d="M3853 4122 c-15 -13 -37 -31 -48 -41 -11 -10 -64 -33 -119 -51 -67
-23 -108 -44 -129 -65 -27 -26 -302 -465 -295 -470 2 -1 28 -17 58 -37 30 -19
92 -57 138 -84 l82 -49 0 -65 c0 -36 -7 -207 -15 -380 -7 -173 -10 -319 -6
-323 12 -12 897 -21 946 -10 31 7 40 14 38 29 -1 10 -4 84 -7 164 -2 80 -10
241 -17 357 -9 161 -9 216 0 227 6 7 73 47 149 87 l138 73 -108 189 c-171 299
-171 299 -340 365 -51 20 -114 52 -140 71 l-47 34 -125 1 c-116 1 -127 -1
-153 -22z"/>
<path d="M620 2139 c-25 -20 -70 -44 -100 -54 -98 -32 -168 -73 -200 -116 -58
-81 -262 -441 -253 -448 5 -3 66 -42 136 -86 l127 -80 0 -45 c0 -25 -7 -175
-15 -335 -8 -159 -15 -314 -15 -342 l0 -53 496 0 496 0 -6 198 c-4 108 -10
280 -16 382 -5 102 -6 188 -2 192 4 3 63 41 132 83 69 42 131 82 138 89 10 10
-12 54 -120 235 -151 254 -150 253 -326 312 -51 17 -96 37 -98 44 -3 6 -19 22
-36 35 -28 21 -42 23 -162 24 l-131 1 -45 -36z"/>
<path d="M2234 2139 c-27 -20 -93 -53 -146 -74 -119 -47 -156 -76 -210 -168
-23 -40 -82 -137 -130 -216 -58 -92 -86 -147 -80 -153 6 -6 70 -47 143 -92
l134 -82 -3 -79 c-2 -44 -9 -215 -17 -380 -9 -192 -10 -303 -4 -310 8 -8 976
-11 985 -2 2 1 -3 151 -11 332 -8 182 -15 353 -15 380 l0 50 88 52 c48 28 115
66 149 85 35 18 63 35 63 38 0 7 -161 280 -215 365 -71 113 -87 124 -240 180
-64 23 -111 47 -139 72 l-43 37 -130 1 -131 0 -48 -36z"/>
</g>
</svg>
